<svg width="180" height="50" viewBox="0 0 180 50" fill="none" xmlns="http://www.w3.org/2000/svg">
  <!-- Shopping Cart Icon -->
  <circle cx="25" cy="25" r="23" fill="#FF6B6B" opacity="0.1"/>
  <path d="M18 18L16 10H10M16 18H34L32 10H16M16 18L18 26H30L32 18M18 32C18 33.1046 17.1046 34 16 34C14.8954 34 14 33.1046 14 32C14 30.8954 14.8954 30 16 30C17.1046 30 18 30.8954 18 32ZM32 32C32 33.1046 31.1046 34 30 34C28.8954 34 28 33.1046 28 32C28 30.8954 28.8954 30 30 30C31.1046 30 32 30.8954 32 32Z" 
    stroke="#FF6B6B" stroke-width="2" stroke-linecap="round" stroke-linejoin="round"/>
  
  <!-- Text: SmartCart -->
  <text x="55" y="31" font-family="Arial, sans-serif" font-size="20" font-weight="bold" fill="#2D3748">
    Smart<tspan fill="#FF6B6B">Cart</tspan>
  </text>
</svg>
